# xmcd CD database file
#
# Track frame offsets:
#	180
#	18106
#	41253
#	67445
#	86349
#	101747
#	116583
#	135487
#	168578
#
# Disc length: 2504 seconds
#
# Revision: 0
# Processed by: cddbd v1.5.1PL0 Copyright (c) Steve Scherf et al.
# Submitted via: CDex 1.51
#
DISCID=7109c609
DTITLE=Patrick Lewandowski - Shades of Grace
DYEAR=1900
DGENRE=Blues
TTITLE0=Holding Cell
TTITLE1=Because Don't Mean
TTITLE2=Shades of Grace
TTITLE3=Bye Bye, Baby
TTITLE4=Angel From Montgomery
TTITLE5=Saturday Night Do You Right
TTITLE6=It Wasn't Me
TTITLE7=Earleen
TTITLE8=That's Earl
EXTD=
EXTT0=
EXTT1=
EXTT2=
EXTT3=
EXTT4=
EXTT5=
EXTT6=
EXTT7=
EXTT8=
PLAYORDER=
